<svg xmlns="http://www.w3.org/2000/svg" viewBox="0 0 800 1000" width="800" height="1000" role="img" aria-hidden="true" preserveAspectRatio="xMidYMid slice">
<title>attention-collapse</title>
<defs>
<linearGradient id="skyattentioncollapse" x1="0" y1="0" x2="0.55" y2="1">
<stop offset="0" stop-color="#FF6A1F"/><stop offset="0.42" stop-color="#E74707"/>
<stop offset="0.8" stop-color="#F2A03A"/><stop offset="1" stop-color="#FDFF85"/>
</linearGradient>
<linearGradient id="beamattentioncollapse" x1="0" y1="0" x2="0" y2="1">
<stop offset="0" stop-color="#FDFF85" stop-opacity="0.72"/>
<stop offset="0.55" stop-color="#FDFF85" stop-opacity="0.3"/>
<stop offset="1" stop-color="#FDFF85" stop-opacity="0"/>
</linearGradient>
<radialGradient id="discattentioncollapse">
<stop offset="0.72" stop-color="#FDFF85" stop-opacity="0.92"/>
<stop offset="0.86" stop-color="#FDFF85" stop-opacity="0.34"/>
<stop offset="1" stop-color="#FDFF85" stop-opacity="0"/>
</radialGradient>
<radialGradient id="glowattentioncollapse" cx="45.9%" cy="34%" r="62%">
<stop offset="0" stop-color="#FDFF85" stop-opacity="0.42"/>
<stop offset="1" stop-color="#FDFF85" stop-opacity="0"/>
</radialGradient>
<linearGradient id="hazeattentioncollapse" x1="0" y1="0" x2="0" y2="1">
<stop offset="0" stop-color="#F2A03A" stop-opacity="0"/>
<stop offset="0.5" stop-color="#F2A03A" stop-opacity="0.42"/>
<stop offset="1" stop-color="#F2A03A" stop-opacity="0"/>
</linearGradient>
<radialGradient id="vigattentioncollapse" cx="50%" cy="42%" r="72%">
<stop offset="0.55" stop-color="#3B1101" stop-opacity="0"/>
<stop offset="1" stop-color="#3B1101" stop-opacity="0.5"/>
</radialGradient>
<!-- Poster grain. Two frequencies: a fine tooth that sits on the whole field
     and a coarse mottle that keeps the flat gradient from looking printed by a
     browser. Both are filters on a rect, so they cost nothing to download. -->
<filter id="softattentioncollapse" x="-20%" y="-20%" width="140%" height="140%">
<feGaussianBlur stdDeviation="16"/>
</filter>
<filter id="fineattentioncollapse" x="0" y="0" width="100%" height="100%">
<feTurbulence type="fractalNoise" baseFrequency="0.85" numOctaves="3" seed="7" result="t"/>
<feColorMatrix in="t" type="matrix" values="0 0 0 0 0 0 0 0 0 0 0 0 0 0 0 0.4 0 0 0 0"/>
</filter>
<filter id="coarseattentioncollapse" x="0" y="0" width="100%" height="100%">
<feTurbulence type="fractalNoise" baseFrequency="0.05" numOctaves="4" seed="19" result="t"/>
<feColorMatrix in="t" type="matrix" values="0 0 0 0 0 0 0 0 0 0 0 0 0 0 0 0.7 0 0 0 0"/>
</filter>
<style>.lit{fill:#FDFF85;stroke:none;fill-opacity:0.22}.lit-stroke{stroke:#FDFF85;stroke-opacity:0.85}</style>
</defs>
<rect width="800" height="1000" fill="url(#skyattentioncollapse)"/>
<rect width="800" height="1000" fill="url(#glowattentioncollapse)"/>
<g fill="#3B1101" stroke="#3B1101" fill-opacity="0.17" stroke-opacity="0.17" ><rect x="-30.4" y="452.2" width="127.4" height="227.8"/><rect x="1.5" y="411.2" width="63.7" height="41"/><rect x="122.4" y="462.5" width="115.1" height="217.5"/><rect x="151.2" y="423.4" width="57.6" height="39.1"/><rect x="264.1" y="445.2" width="125.1" height="234.8"/><rect x="421.2" y="508.2" width="104.4" height="171.8"/><rect x="556.9" y="464.6" width="126.3" height="215.4"/><rect x="588.4" y="425.8" width="63.1" height="38.8"/><rect x="705.4" y="490.4" width="122.6" height="189.6"/></g>
<rect x="0" y="360" width="800" height="300" fill="url(#hazeattentioncollapse)"/>
<g filter="url(#softattentioncollapse)"><polygon points="265.5,233 468.2,233 753.9,1000 -20.2,1000" fill="url(#beamattentioncollapse)"/></g>
<g fill="#3B1101" stroke="#3B1101" fill-opacity="0.93" stroke-opacity="0.93" ><rect x="-48" y="440" width="336" height="320"/><polyline class="lit-stroke" points="-21.1,587.6 2,609.5 25.2,613.7 48.3,644 71.5,635.8 94.6,659.3 117.8,688 140.9,690.6 164.1,702.4 187.2,702.4" fill="none" stroke-width="4"/><rect class="lit" x="214.1" y="523.2" width="47" height="5"/><rect class="lit" x="214.1" y="564.8" width="47" height="5"/><rect class="lit" x="214.1" y="606.4" width="47" height="5"/><rect class="lit" x="214.1" y="648" width="47" height="5"/><rect class="lit" x="214.1" y="689.6" width="47" height="5"/></g><g fill="#3B1101" stroke="#3B1101" fill-opacity="0.93" stroke-opacity="0.93" ><rect x="512" y="470" width="336" height="300"/><polyline class="lit-stroke" points="538.9,619.8 562,614.1 585.2,651.6 608.3,675.6 631.5,700.4 654.6,716 677.8,716 700.9,716 724.1,716 747.2,716" fill="none" stroke-width="4"/><rect class="lit" x="774.1" y="548" width="47" height="5"/><rect class="lit" x="774.1" y="587" width="47" height="5"/><rect class="lit" x="774.1" y="626" width="47" height="5"/><rect class="lit" x="774.1" y="665" width="47" height="5"/><rect class="lit" x="774.1" y="704" width="47" height="5"/></g>
<g fill="#3B1101" stroke="#3B1101" fill-opacity="0.96" stroke-opacity="0.96" ><path d="M 315 0 L 230.4 233" fill="none" stroke-width="5"/><path d="M 418.7 0 L 503.2 233" fill="none" stroke-width="5"/><ellipse cx="366.8" cy="233" rx="184.3" ry="55.3" fill="none" stroke-width="27.6"/><path d="M 182.5 233 A 184.3 55.3 0 0 0 551.1 233 L 551.1 257.9 A 184.3 55.3 0 0 1 182.5 257.9 Z" stroke-width="0"/></g><g fill="#3B1101" stroke="#3B1101" fill-opacity="0.82" stroke-opacity="0.82" ><circle cx="380.2" cy="295.7" r="3.8"/><rect x="356.3" y="295.7" width="4.4" height="4.4" transform="rotate(11.3 356.3 295.7)"/><circle cx="362.9" cy="295.7" r="3.7"/><rect x="381.6" y="295.7" width="5.8" height="5.8" transform="rotate(74.8 381.6 295.7)"/><rect x="389.6" y="295.7" width="4.7" height="4.7" transform="rotate(14.1 389.6 295.7)"/><rect x="350.5" y="295.7" width="6.8" height="6.8" transform="rotate(33.3 350.5 295.7)"/><rect x="371.7" y="319.9" width="6.7" height="6.7" transform="rotate(46.1 371.7 319.9)"/><rect x="351.5" y="319.9" width="4.7" height="4.7" transform="rotate(3.4 351.5 319.9)"/><circle cx="384" cy="319.9" r="2.4"/><rect x="380.3" y="319.9" width="5.6" height="5.6" transform="rotate(57.7 380.3 319.9)"/><rect x="349.5" y="319.9" width="5.5" height="5.5" transform="rotate(45.2 349.5 319.9)"/><rect x="358" y="319.9" width="4.6" height="4.6" transform="rotate(6 358 319.9)"/><rect x="368" y="344.1" width="4.2" height="4.2" transform="rotate(60.8 368 344.1)"/><rect x="376.2" y="344.1" width="6.8" height="6.8" transform="rotate(85.3 376.2 344.1)"/><rect x="384.8" y="344.1" width="4.8" height="4.8" transform="rotate(5.5 384.8 344.1)"/><rect x="386.1" y="344.1" width="5.8" height="5.8" transform="rotate(40.5 386.1 344.1)"/><rect x="392.3" y="344.1" width="5.9" height="5.9" transform="rotate(1.8 392.3 344.1)"/><circle cx="391.4" cy="344.1" r="2.6"/><rect x="390.5" y="368.2" width="6.6" height="6.6" transform="rotate(17.9 390.5 368.2)"/><circle cx="361.6" cy="368.2" r="3.4"/><rect x="346" y="368.2" width="4.3" height="4.3" transform="rotate(29.9 346 368.2)"/><circle cx="370.5" cy="368.2" r="2.5"/><rect x="373" y="368.2" width="4.2" height="4.2" transform="rotate(70.9 373 368.2)"/><rect x="394.8" y="368.2" width="6.9" height="6.9" transform="rotate(39.4 394.8 368.2)"/><circle cx="393.1" cy="392.4" r="2.5"/><circle cx="362.7" cy="392.4" r="3.4"/><rect x="374.1" y="392.4" width="5.5" height="5.5" transform="rotate(50.8 374.1 392.4)"/><rect x="346.5" y="392.4" width="4.7" height="4.7" transform="rotate(32.5 346.5 392.4)"/><circle cx="370" cy="392.4" r="2.3"/><rect x="398.1" y="416.6" width="4.1" height="4.1" transform="rotate(12.6 398.1 416.6)"/><rect x="354.2" y="416.6" width="4.9" height="4.9" transform="rotate(67.7 354.2 416.6)"/><circle cx="367.6" cy="416.6" r="3.3"/><circle cx="396.6" cy="416.6" r="1.9"/><circle cx="357.3" cy="416.6" r="2.5"/><rect x="357.6" y="440.7" width="4.1" height="4.1" transform="rotate(45.5 357.6 440.7)"/><circle cx="372.4" cy="440.7" r="1.9"/><rect x="396" y="440.7" width="4.4" height="4.4" transform="rotate(3.4 396 440.7)"/><circle cx="342.4" cy="440.7" r="2.4"/><circle cx="371.1" cy="440.7" r="2.4"/><rect x="348.2" y="464.9" width="4.5" height="4.5" transform="rotate(87.3 348.2 464.9)"/><circle cx="366.6" cy="464.9" r="2.6"/><circle cx="338.7" cy="464.9" r="1.8"/><rect x="343.4" y="464.9" width="4.8" height="4.8" transform="rotate(34.2 343.4 464.9)"/><circle cx="340.8" cy="464.9" r="1.9"/><circle cx="407.1" cy="489.1" r="2.5"/><rect x="406.8" y="489.1" width="3.7" height="3.7" transform="rotate(32.5 406.8 489.1)"/><rect x="386.1" y="489.1" width="6" height="6" transform="rotate(33.9 386.1 489.1)"/><circle cx="355.1" cy="489.1" r="2.3"/><rect x="337.6" y="489.1" width="5.5" height="5.5" transform="rotate(28.6 337.6 489.1)"/><circle cx="347.9" cy="513.3" r="2.5"/><rect x="335.2" y="513.3" width="4.6" height="4.6" transform="rotate(12.6 335.2 513.3)"/><rect x="368.2" y="513.3" width="4.6" height="4.6" transform="rotate(48.4 368.2 513.3)"/><rect x="409.3" y="513.3" width="3.5" height="3.5" transform="rotate(84.4 409.3 513.3)"/><rect x="359.6" y="513.3" width="3.6" height="3.6" transform="rotate(57.3 359.6 513.3)"/><rect x="361.7" y="537.4" width="4.9" height="4.9" transform="rotate(14 361.7 537.4)"/><rect x="337.9" y="537.4" width="3.1" height="3.1" transform="rotate(60.8 337.9 537.4)"/><rect x="327.3" y="537.4" width="5.2" height="5.2" transform="rotate(51.7 327.3 537.4)"/><rect x="401.7" y="537.4" width="4" height="4" transform="rotate(55.9 401.7 537.4)"/><circle cx="419.9" cy="561.6" r="2.7"/><rect x="413.9" y="561.6" width="3.2" height="3.2" transform="rotate(19.1 413.9 561.6)"/><circle cx="368.3" cy="561.6" r="2.4"/><rect x="413.3" y="561.6" width="4.2" height="4.2" transform="rotate(44.8 413.3 561.6)"/><circle cx="389.9" cy="585.8" r="2.6"/><circle cx="318.6" cy="585.8" r="1.6"/><circle cx="363.7" cy="585.8" r="2.5"/><rect x="343.8" y="585.8" width="3.7" height="3.7" transform="rotate(12.8 343.8 585.8)"/><rect x="369.9" y="609.9" width="4.7" height="4.7" transform="rotate(69.6 369.9 609.9)"/><circle cx="329.2" cy="609.9" r="1.5"/><rect x="322.7" y="609.9" width="4.4" height="4.4" transform="rotate(5.3 322.7 609.9)"/><rect x="321.8" y="609.9" width="4.1" height="4.1" transform="rotate(35.4 321.8 609.9)"/><rect x="404.1" y="634.1" width="4" height="4" transform="rotate(17.3 404.1 634.1)"/><circle cx="302.2" cy="634.1" r="1.6"/><rect x="331.1" y="634.1" width="4.3" height="4.3" transform="rotate(34.3 331.1 634.1)"/><circle cx="349.6" cy="634.1" r="1.5"/><circle cx="341.1" cy="658.3" r="2.1"/><circle cx="334.2" cy="658.3" r="1.6"/><rect x="375.6" y="658.3" width="2.5" height="2.5" transform="rotate(45.8 375.6 658.3)"/><circle cx="389.1" cy="658.3" r="1.6"/><circle cx="302.5" cy="682.5" r="1.3"/><rect x="317.4" y="682.5" width="2.8" height="2.8" transform="rotate(76.1 317.4 682.5)"/><rect x="365.5" y="682.5" width="3.4" height="3.4" transform="rotate(57.2 365.5 682.5)"/><rect x="276.4" y="706.6" width="2.7" height="2.7" transform="rotate(40.4 276.4 706.6)"/><rect x="305" y="706.6" width="3.4" height="3.4" transform="rotate(24.5 305 706.6)"/><circle cx="342" cy="706.6" r="1.7"/><rect x="307.1" y="730.8" width="2.5" height="2.5" transform="rotate(5.5 307.1 730.8)"/><rect x="355.1" y="730.8" width="3.5" height="3.5" transform="rotate(86.8 355.1 730.8)"/><rect x="406.9" y="730.8" width="2.3" height="2.3" transform="rotate(8.3 406.9 730.8)"/><rect x="305.4" y="755" width="3.8" height="3.8" transform="rotate(64.6 305.4 755)"/><rect x="319.3" y="755" width="2.8" height="2.8" transform="rotate(4 319.3 755)"/><rect x="426.7" y="755" width="2.7" height="2.7" transform="rotate(87.9 426.7 755)"/><circle cx="344.3" cy="779.1" r="1.4"/><rect x="308.6" y="779.1" width="3" height="3" transform="rotate(45.9 308.6 779.1)"/><rect x="375.5" y="779.1" width="2.4" height="2.4" transform="rotate(86.6 375.5 779.1)"/><rect x="389.3" y="803.3" width="3" height="3" transform="rotate(58.9 389.3 803.3)"/><circle cx="393.5" cy="803.3" r="1.5"/><rect x="395" y="803.3" width="2.1" height="2.1" transform="rotate(75.5 395 803.3)"/><rect x="344.5" y="827.5" width="2.6" height="2.6" transform="rotate(56.7 344.5 827.5)"/><circle cx="468.9" cy="827.5" r="0.9"/><rect x="395.7" y="851.7" width="2.9" height="2.9" transform="rotate(69.9 395.7 851.7)"/><circle cx="413" cy="851.7" r="1.3"/><circle cx="217.9" cy="875.8" r="0.8"/><rect x="522.9" y="875.8" width="2.6" height="2.6" transform="rotate(0.2 522.9 875.8)"/><circle cx="348.4" cy="900" r="0.8"/><rect x="471.1" y="900" width="1.6" height="1.6" transform="rotate(34.9 471.1 900)"/></g>
<g fill="#3B1101" stroke="#3B1101" fill-opacity="0.72" stroke-opacity="0.72" ><circle cx="-40" cy="862.2" r="7.3"/><path d="M -58.5 1040 L -58.5 870.6 C -51.5 865.2 -45.8 863.3 -40 863.3 C -34.2 863.3 -28.5 865.2 -21.5 870.6 L -21.5 1040 Z"/><circle cx="0.6" cy="892.2" r="6.8"/><path d="M -16.6 1040 L -16.6 900 C -10.1 895 -4.8 893.2 0.6 893.2 C 6 893.2 11.3 895 17.8 900 L 17.8 1040 Z"/><circle cx="46.7" cy="866.4" r="6.3"/><path d="M 30.7 1040 L 30.7 873.7 C 36.8 869 41.7 867.3 46.7 867.3 C 51.8 867.3 56.6 869 62.7 873.7 L 62.7 1040 Z"/><circle cx="101.3" cy="852" r="6.1"/><path d="M 85.9 1040 L 85.9 858.9 C 91.8 854.5 96.4 852.9 101.3 852.9 C 106.2 852.9 110.9 854.5 116.7 858.9 L 116.7 1040 Z"/><circle cx="161.2" cy="876.1" r="6.4"/><path d="M 144.9 1040 L 144.9 883.4 C 151.1 878.7 156 877 161.2 877 C 166.3 877 171.3 878.7 177.4 883.4 L 177.4 1040 Z"/><circle cx="201.7" cy="889.8" r="6.9"/><path d="M 184.2 1040 L 184.2 897.8 C 190.9 892.7 196.2 890.8 201.7 890.8 C 207.3 890.8 212.6 892.7 219.3 897.8 L 219.3 1040 Z"/><circle cx="255.4" cy="886" r="6.1"/><path d="M 240.1 1040 L 240.1 893 C 245.9 888.6 250.6 887 255.4 887 C 260.3 887 264.9 888.6 270.8 893 L 270.8 1040 Z"/><circle cx="303.6" cy="853.9" r="6.9"/><path d="M 286.2 1040 L 286.2 861.8 C 292.8 856.8 298.1 854.9 303.6 854.9 C 309.1 854.9 314.3 856.8 321 861.8 L 321 1040 Z"/><circle cx="360.8" cy="835.6" r="7.6"/><path d="M 341.6 1040 L 341.6 844.3 C 348.9 838.8 354.8 836.7 360.8 836.7 C 366.9 836.7 372.7 838.8 380 844.3 L 380 1040 Z"/><circle cx="419.7" cy="881.5" r="6.1"/><path d="M 404.1 1040 L 404.1 888.6 C 410 884.1 414.7 882.5 419.7 882.5 C 424.6 882.5 429.3 884.1 435.2 888.6 L 435.2 1040 Z"/><circle cx="464.9" cy="870.6" r="6.7"/><path d="M 448 1040 L 448 878.3 C 454.4 873.4 459.6 871.6 464.9 871.6 C 470.3 871.6 475.4 873.4 481.8 878.3 L 481.8 1040 Z"/><circle cx="505" cy="887.1" r="6.4"/><path d="M 488.8 1040 L 488.8 894.4 C 495 889.8 499.9 888 505 888 C 510.1 888 515 889.8 521.2 894.4 L 521.2 1040 Z"/><circle cx="552.6" cy="842.5" r="7.6"/><path d="M 533.4 1040 L 533.4 851.2 C 540.7 845.7 546.5 843.6 552.6 843.6 C 558.6 843.6 564.5 845.7 571.7 851.2 L 571.7 1040 Z"/><circle cx="610.7" cy="861.8" r="6"/><path d="M 595.5 1040 L 595.5 868.7 C 601.3 864.3 605.9 862.7 610.7 862.7 C 615.5 862.7 620.1 864.3 625.9 868.7 L 625.9 1040 Z"/><circle cx="663.2" cy="858.2" r="6.9"/><path d="M 645.8 1040 L 645.8 866.1 C 652.4 861.1 657.7 859.2 663.2 859.2 C 668.7 859.2 674 861.1 680.7 866.1 L 680.7 1040 Z"/><circle cx="699" cy="852.3" r="6.7"/><path d="M 682.1 1040 L 682.1 860 C 688.5 855.1 693.7 853.3 699 853.3 C 704.4 853.3 709.5 855.1 716 860 L 716 1040 Z"/><circle cx="738.9" cy="837.2" r="7.4"/><path d="M 720.1 1040 L 720.1 845.7 C 727.3 840.3 733 838.3 738.9 838.3 C 744.9 838.3 750.6 840.3 757.7 845.7 L 757.7 1040 Z"/><circle cx="785.2" cy="881.4" r="7"/><path d="M 767.3 1040 L 767.3 889.5 C 774.1 884.3 779.6 882.4 785.2 882.4 C 790.8 882.4 796.3 884.3 803 889.5 L 803 1040 Z"/><circle cx="824.9" cy="861.7" r="5.5"/><path d="M 810.9 1040 L 810.9 868.1 C 816.2 864 820.5 862.6 824.9 862.6 C 829.4 862.6 833.6 864 839 868.1 L 839 1040 Z"/></g><g fill="#3B1101" stroke="#3B1101" fill-opacity="0.98" stroke-opacity="0.98" ><circle cx="-42.6" cy="919.8" r="22"/><path d="M -98.4 1040 L -98.4 945.1 C -77.2 929 -60.2 923.1 -42.6 923.1 C -25 923.1 -8 929 13.2 945.1 L 13.2 1040 Z"/><circle cx="87.9" cy="907.6" r="21.4"/><path d="M 33.7 1040 L 33.7 932.2 C 54.3 916.6 70.8 910.9 87.9 910.9 C 105 910.9 121.5 916.6 142 932.2 L 142 1040 Z"/><circle cx="228.8" cy="884.7" r="22.9"/><path d="M 170.8 1040 L 170.8 911 C 192.8 894.3 210.5 888.1 228.8 888.1 C 247.1 888.1 264.7 894.3 286.7 911 L 286.7 1040 Z"/><circle cx="374.8" cy="880.3" r="24.5"/><path d="M 312.8 1040 L 312.8 908.4 C 336.3 890.5 355.2 883.9 374.8 883.9 C 394.3 883.9 413.2 890.5 436.7 908.4 L 436.7 1040 Z"/><circle cx="567" cy="887.5" r="22.8"/><path d="M 509.4 1040 L 509.4 913.7 C 531.3 897 548.8 890.9 567 890.9 C 585.2 890.9 602.8 897 624.7 913.7 L 624.7 1040 Z"/><circle cx="701.1" cy="890.2" r="24.3"/><path d="M 639.5 1040 L 639.5 918.2 C 662.9 900.3 681.6 893.9 701.1 893.9 C 720.5 893.9 739.3 900.3 762.7 918.2 L 762.7 1040 Z"/><circle cx="849.5" cy="886.1" r="22"/><path d="M 793.7 1040 L 793.7 911.4 C 814.9 895.3 831.9 889.4 849.5 889.4 C 867.1 889.4 884.1 895.3 905.2 911.4 L 905.2 1040 Z"/></g>
<rect width="800" height="1000" fill="url(#vigattentioncollapse)"/>
<rect width="800" height="1000" filter="url(#coarseattentioncollapse)" opacity="0.22" style="mix-blend-mode:overlay"/>
<rect width="800" height="1000" filter="url(#fineattentioncollapse)" opacity="0.34" style="mix-blend-mode:multiply"/>
<rect width="800" height="1000" filter="url(#fineattentioncollapse)" opacity="0.16" style="mix-blend-mode:screen"/>
</svg>
