<svg xmlns="http://www.w3.org/2000/svg" viewBox="0 0 800 1000" width="800" height="1000" role="img" aria-hidden="true" preserveAspectRatio="xMidYMid slice">
<title>pilot-plateau</title>
<defs>
<linearGradient id="skypilotplateau" x1="0" y1="0" x2="0.55" y2="1">
<stop offset="0" stop-color="#C2C64F"/><stop offset="0.42" stop-color="#9A9A43"/>
<stop offset="0.8" stop-color="#4E9A62"/><stop offset="1" stop-color="#EFFAB4"/>
</linearGradient>
<linearGradient id="beampilotplateau" x1="0" y1="0" x2="0" y2="1">
<stop offset="0" stop-color="#EFFAB4" stop-opacity="0.72"/>
<stop offset="0.55" stop-color="#EFFAB4" stop-opacity="0.3"/>
<stop offset="1" stop-color="#EFFAB4" stop-opacity="0"/>
</linearGradient>
<radialGradient id="discpilotplateau">
<stop offset="0.72" stop-color="#EFFAB4" stop-opacity="0.92"/>
<stop offset="0.86" stop-color="#EFFAB4" stop-opacity="0.34"/>
<stop offset="1" stop-color="#EFFAB4" stop-opacity="0"/>
</radialGradient>
<radialGradient id="glowpilotplateau" cx="42.6%" cy="34%" r="62%">
<stop offset="0" stop-color="#EFFAB4" stop-opacity="0.42"/>
<stop offset="1" stop-color="#EFFAB4" stop-opacity="0"/>
</radialGradient>
<linearGradient id="hazepilotplateau" x1="0" y1="0" x2="0" y2="1">
<stop offset="0" stop-color="#4E9A62" stop-opacity="0"/>
<stop offset="0.5" stop-color="#4E9A62" stop-opacity="0.42"/>
<stop offset="1" stop-color="#4E9A62" stop-opacity="0"/>
</linearGradient>
<radialGradient id="vigpilotplateau" cx="50%" cy="42%" r="72%">
<stop offset="0.55" stop-color="#20260A" stop-opacity="0"/>
<stop offset="1" stop-color="#20260A" stop-opacity="0.5"/>
</radialGradient>
<!-- Poster grain. Two frequencies: a fine tooth that sits on the whole field
     and a coarse mottle that keeps the flat gradient from looking printed by a
     browser. Both are filters on a rect, so they cost nothing to download. -->
<filter id="softpilotplateau" x="-20%" y="-20%" width="140%" height="140%">
<feGaussianBlur stdDeviation="16"/>
</filter>
<filter id="finepilotplateau" x="0" y="0" width="100%" height="100%">
<feTurbulence type="fractalNoise" baseFrequency="0.85" numOctaves="3" seed="7" result="t"/>
<feColorMatrix in="t" type="matrix" values="0 0 0 0 0 0 0 0 0 0 0 0 0 0 0 0.4 0 0 0 0"/>
</filter>
<filter id="coarsepilotplateau" x="0" y="0" width="100%" height="100%">
<feTurbulence type="fractalNoise" baseFrequency="0.05" numOctaves="4" seed="19" result="t"/>
<feColorMatrix in="t" type="matrix" values="0 0 0 0 0 0 0 0 0 0 0 0 0 0 0 0.7 0 0 0 0"/>
</filter>
<style>.lit{fill:#EFFAB4;stroke:none;fill-opacity:0.22}.lit-stroke{stroke:#EFFAB4;stroke-opacity:0.85}</style>
</defs>
<rect width="800" height="1000" fill="url(#skypilotplateau)"/>
<rect width="800" height="1000" fill="url(#glowpilotplateau)"/>
<g fill="#20260A" stroke="#20260A" fill-opacity="0.17" stroke-opacity="0.17" ><rect x="-21.1" y="459.3" width="138.2" height="220.7"/><rect x="151.7" y="537.7" width="144.5" height="142.3"/><rect x="187.9" y="512.1" width="72.3" height="25.6"/><rect x="318.5" y="531.9" width="162.9" height="148.1"/><rect x="359.3" y="505.2" width="81.5" height="26.7"/><rect x="499" y="434.5" width="153.9" height="245.5"/><rect x="681" y="460.2" width="142.1" height="219.8"/><rect x="716.5" y="420.7" width="71" height="39.6"/></g>
<rect x="0" y="360" width="800" height="300" fill="url(#hazepilotplateau)"/>
<g filter="url(#softpilotplateau)"><polygon points="240.7,220.9 440.2,220.9 721.3,1000 -40.5,1000" fill="url(#beampilotplateau)"/></g>
<g fill="#20260A" stroke="#20260A" fill-opacity="0.93" stroke-opacity="0.93" ><rect x="-42.1" y="440.2" width="72.2" height="319.8"/><rect x="-30.6" y="369.8" width="49.1" height="76.8"/><rect x="41.9" y="589.1" width="72.2" height="170.9"/><rect x="53.4" y="551.5" width="49.1" height="41"/><rect x="125.9" y="534.2" width="72.2" height="225.8"/><rect x="137.4" y="484.5" width="49.1" height="54.2"/><rect x="209.9" y="542.5" width="72.2" height="217.5"/><rect x="221.4" y="494.7" width="49.1" height="52.2"/></g><g fill="#20260A" stroke="#20260A" fill-opacity="0.93" stroke-opacity="0.93" ><rect x="517.9" y="591.6" width="72.2" height="178.4"/><rect x="529.4" y="552.4" width="49.1" height="42.8"/><rect x="601.9" y="481.4" width="72.2" height="288.6"/><rect x="613.4" y="417.9" width="49.1" height="69.3"/><rect x="685.9" y="513.5" width="72.2" height="256.5"/><rect x="697.4" y="457.1" width="49.1" height="61.6"/><rect x="769.9" y="569.2" width="72.2" height="200.8"/><rect x="781.4" y="525" width="49.1" height="48.2"/></g>
<g fill="#20260A" stroke="#20260A" fill-opacity="0.96" stroke-opacity="0.96" ><path d="M 289.4 0 L 206.2 220.9" fill="none" stroke-width="5"/><path d="M 391.4 0 L 474.6 220.9" fill="none" stroke-width="5"/><ellipse cx="340.4" cy="220.9" rx="181.4" ry="54.4" fill="none" stroke-width="27.2"/><path d="M 159 220.9 A 181.4 54.4 0 0 0 521.8 220.9 L 521.8 245.3 A 181.4 54.4 0 0 1 159 245.3 Z" stroke-width="0"/></g><g fill="#20260A" stroke="#20260A" fill-opacity="0.82" stroke-opacity="0.82" ><rect x="348.2" y="282.5" width="5.4" height="5.4" transform="rotate(81.1 348.2 282.5)"/><rect x="352.5" y="282.5" width="6.2" height="6.2" transform="rotate(67.8 352.5 282.5)"/><circle cx="345.9" cy="282.5" r="2.3"/><rect x="354.8" y="282.5" width="4.6" height="4.6" transform="rotate(56.8 354.8 282.5)"/><rect x="362.5" y="282.5" width="7.5" height="7.5" transform="rotate(27.7 362.5 282.5)"/><rect x="363.2" y="282.5" width="5.1" height="5.1" transform="rotate(43.3 363.2 282.5)"/><rect x="332.8" y="307.2" width="5.2" height="5.2" transform="rotate(89.7 332.8 307.2)"/><rect x="362.2" y="307.2" width="5.6" height="5.6" transform="rotate(0.8 362.2 307.2)"/><rect x="333.6" y="307.2" width="6.3" height="6.3" transform="rotate(71.2 333.6 307.2)"/><circle cx="315.2" cy="307.2" r="3.4"/><circle cx="352.1" cy="307.2" r="3.2"/><rect x="337.1" y="307.2" width="4.5" height="4.5" transform="rotate(20.9 337.1 307.2)"/><circle cx="326" cy="331.9" r="2.2"/><circle cx="358.1" cy="331.9" r="3.4"/><rect x="339.1" y="331.9" width="5.7" height="5.7" transform="rotate(6.3 339.1 331.9)"/><circle cx="328" cy="331.9" r="3.1"/><rect x="329.4" y="331.9" width="4" height="4" transform="rotate(45.8 329.4 331.9)"/><rect x="332.3" y="331.9" width="4.6" height="4.6" transform="rotate(87.7 332.3 331.9)"/><rect x="313.2" y="356.6" width="4.1" height="4.1" transform="rotate(24.7 313.2 356.6)"/><circle cx="323.5" cy="356.6" r="2.1"/><rect x="331.5" y="356.6" width="5.6" height="5.6" transform="rotate(38.7 331.5 356.6)"/><rect x="346.3" y="356.6" width="7.1" height="7.1" transform="rotate(33.6 346.3 356.6)"/><rect x="320.7" y="356.6" width="4.5" height="4.5" transform="rotate(85.6 320.7 356.6)"/><rect x="315.5" y="356.6" width="4.8" height="4.8" transform="rotate(44.7 315.5 356.6)"/><rect x="335.7" y="381.3" width="4.5" height="4.5" transform="rotate(63.2 335.7 381.3)"/><rect x="349.2" y="381.3" width="6.6" height="6.6" transform="rotate(52.8 349.2 381.3)"/><rect x="314.4" y="381.3" width="4.7" height="4.7" transform="rotate(19.6 314.4 381.3)"/><circle cx="340.3" cy="381.3" r="1.9"/><circle cx="365.7" cy="381.3" r="2.4"/><rect x="327.1" y="406" width="4.5" height="4.5" transform="rotate(55.9 327.1 406)"/><circle cx="369" cy="406" r="2.6"/><rect x="367.9" y="406" width="5" height="5" transform="rotate(17.1 367.9 406)"/><rect x="327.3" y="406" width="4.2" height="4.2" transform="rotate(4.5 327.3 406)"/><rect x="343.8" y="406" width="6.6" height="6.6" transform="rotate(62.5 343.8 406)"/><rect x="337.2" y="430.7" width="3.9" height="3.9" transform="rotate(57.1 337.2 430.7)"/><circle cx="359.3" cy="430.7" r="3.1"/><circle cx="321.9" cy="430.7" r="3"/><rect x="310.7" y="430.7" width="5.7" height="5.7" transform="rotate(1.3 310.7 430.7)"/><rect x="343.8" y="430.7" width="4.6" height="4.6" transform="rotate(68.1 343.8 430.7)"/><rect x="314.2" y="455.4" width="4.9" height="4.9" transform="rotate(41 314.2 455.4)"/><rect x="362.2" y="455.4" width="5.1" height="5.1" transform="rotate(11.2 362.2 455.4)"/><rect x="344" y="455.4" width="5.9" height="5.9" transform="rotate(52 344 455.4)"/><rect x="310.6" y="455.4" width="4.5" height="4.5" transform="rotate(14.2 310.6 455.4)"/><rect x="316.4" y="455.4" width="5.9" height="5.9" transform="rotate(6.5 316.4 455.4)"/><circle cx="330.7" cy="480.1" r="2.3"/><rect x="380.8" y="480.1" width="4.3" height="4.3" transform="rotate(85 380.8 480.1)"/><rect x="309.7" y="480.1" width="5.3" height="5.3" transform="rotate(39.8 309.7 480.1)"/><rect x="358.8" y="480.1" width="6.1" height="6.1" transform="rotate(70.4 358.8 480.1)"/><rect x="323.1" y="480.1" width="4.3" height="4.3" transform="rotate(18.8 323.1 480.1)"/><rect x="354.3" y="504.8" width="3.6" height="3.6" transform="rotate(42.8 354.3 504.8)"/><rect x="310.7" y="504.8" width="5.5" height="5.5" transform="rotate(22 310.7 504.8)"/><rect x="297.6" y="504.8" width="5.4" height="5.4" transform="rotate(48.2 297.6 504.8)"/><rect x="343.8" y="504.8" width="4.9" height="4.9" transform="rotate(79.5 343.8 504.8)"/><rect x="364.2" y="504.8" width="5.5" height="5.5" transform="rotate(83.9 364.2 504.8)"/><circle cx="335" cy="529.5" r="1.7"/><rect x="375.5" y="529.5" width="4.8" height="4.8" transform="rotate(53.3 375.5 529.5)"/><rect x="297.3" y="529.5" width="4.9" height="4.9" transform="rotate(43.1 297.3 529.5)"/><rect x="385" y="529.5" width="3.2" height="3.2" transform="rotate(23.1 385 529.5)"/><rect x="348.2" y="554.2" width="5" height="5" transform="rotate(42.2 348.2 554.2)"/><circle cx="383.2" cy="554.2" r="2.5"/><circle cx="372.1" cy="554.2" r="2.4"/><rect x="365.9" y="554.2" width="5.3" height="5.3" transform="rotate(31.4 365.9 554.2)"/><rect x="305.9" y="578.9" width="4.7" height="4.7" transform="rotate(15.6 305.9 578.9)"/><rect x="281.5" y="578.9" width="3.6" height="3.6" transform="rotate(75.1 281.5 578.9)"/><rect x="324.2" y="578.9" width="2.9" height="2.9" transform="rotate(9 324.2 578.9)"/><rect x="373" y="578.9" width="4.2" height="4.2" transform="rotate(72.7 373 578.9)"/><rect x="400.9" y="603.6" width="3.1" height="3.1" transform="rotate(63.5 400.9 603.6)"/><rect x="290.6" y="603.6" width="4.1" height="4.1" transform="rotate(24.4 290.6 603.6)"/><circle cx="325.9" cy="603.6" r="2.2"/><circle cx="293.7" cy="603.6" r="1.6"/><circle cx="395.4" cy="628.3" r="2.1"/><rect x="283.7" y="628.3" width="3.9" height="3.9" transform="rotate(56.7 283.7 628.3)"/><circle cx="273.5" cy="628.3" r="1.3"/><rect x="276.2" y="628.3" width="3.7" height="3.7" transform="rotate(17.6 276.2 628.3)"/><circle cx="407.4" cy="653" r="2.2"/><circle cx="402.4" cy="653" r="1.8"/><rect x="293.2" y="653" width="3.1" height="3.1" transform="rotate(0.7 293.2 653)"/><rect x="372.9" y="653" width="2.6" height="2.6" transform="rotate(30.7 372.9 653)"/><circle cx="392.2" cy="677.7" r="2"/><circle cx="291.4" cy="677.7" r="1.7"/><rect x="340.8" y="677.7" width="2.6" height="2.6" transform="rotate(48 340.8 677.7)"/><rect x="426.7" y="702.4" width="3.2" height="3.2" transform="rotate(50.6 426.7 702.4)"/><circle cx="267.1" cy="702.4" r="1.2"/><rect x="398.8" y="702.4" width="4" height="4" transform="rotate(13.9 398.8 702.4)"/><circle cx="278.8" cy="727.1" r="1.5"/><circle cx="426.5" cy="727.1" r="1.5"/><circle cx="360.9" cy="727.1" r="1.3"/><circle cx="232.4" cy="751.8" r="1.4"/><circle cx="339.8" cy="751.8" r="1.7"/><rect x="384.6" y="751.8" width="2.8" height="2.8" transform="rotate(20.8 384.6 751.8)"/><rect x="326.4" y="776.5" width="2.8" height="2.8" transform="rotate(45.9 326.4 776.5)"/><rect x="267.8" y="776.5" width="3.4" height="3.4" transform="rotate(33.6 267.8 776.5)"/><rect x="235.8" y="776.5" width="3.1" height="3.1" transform="rotate(30.8 235.8 776.5)"/><rect x="339.3" y="801.2" width="2.3" height="2.3" transform="rotate(81.7 339.3 801.2)"/><rect x="257.3" y="801.2" width="3.2" height="3.2" transform="rotate(86.4 257.3 801.2)"/><rect x="466" y="801.2" width="3.2" height="3.2" transform="rotate(17.5 466 801.2)"/><rect x="477.1" y="825.9" width="2.3" height="2.3" transform="rotate(75.9 477.1 825.9)"/><circle cx="275.6" cy="825.9" r="1.1"/><circle cx="425.5" cy="850.6" r="0.9"/><rect x="280.2" y="850.6" width="1.8" height="1.8" transform="rotate(83 280.2 850.6)"/><rect x="255.7" y="875.3" width="2.2" height="2.2" transform="rotate(27.4 255.7 875.3)"/><circle cx="417.6" cy="875.3" r="0.8"/><rect x="468.2" y="900" width="1.7" height="1.7" transform="rotate(38.5 468.2 900)"/><rect x="399" y="900" width="2.2" height="2.2" transform="rotate(6.3 399 900)"/></g>
<g fill="#20260A" stroke="#20260A" fill-opacity="0.72" stroke-opacity="0.72" ><circle cx="-40" cy="849.9" r="6.7"/><path d="M -56.9 1040 L -56.9 857.5 C -50.5 852.6 -45.3 850.9 -40 850.9 C -34.7 850.9 -29.5 852.6 -23.1 857.5 L -23.1 1040 Z"/><circle cx="4.5" cy="847.4" r="7.1"/><path d="M -13.6 1040 L -13.6 855.6 C -6.7 850.4 -1.2 848.5 4.5 848.5 C 10.2 848.5 15.7 850.4 22.6 855.6 L 22.6 1040 Z"/><circle cx="48.3" cy="887.7" r="5.4"/><path d="M 34.7 1040 L 34.7 893.9 C 39.9 890 44 888.5 48.3 888.5 C 52.6 888.5 56.7 890 61.9 893.9 L 61.9 1040 Z"/><circle cx="82.3" cy="832" r="8"/><path d="M 62 1040 L 62 841.2 C 69.8 835.3 75.9 833.2 82.3 833.2 C 88.8 833.2 94.9 835.3 102.6 841.2 L 102.6 1040 Z"/><circle cx="142.6" cy="844" r="6.2"/><path d="M 126.9 1040 L 126.9 851.1 C 132.9 846.6 137.6 844.9 142.6 844.9 C 147.5 844.9 152.3 846.6 158.2 851.1 L 158.2 1040 Z"/><circle cx="198" cy="892.1" r="5.9"/><path d="M 183.2 1040 L 183.2 898.9 C 188.8 894.6 193.3 893 198 893 C 202.7 893 207.2 894.6 212.9 898.9 L 212.9 1040 Z"/><circle cx="245.8" cy="839.9" r="5.5"/><path d="M 231.8 1040 L 231.8 846.3 C 237.2 842.2 241.4 840.7 245.8 840.7 C 250.3 840.7 254.5 842.2 259.8 846.3 L 259.8 1040 Z"/><circle cx="289" cy="866.2" r="6.6"/><path d="M 272.3 1040 L 272.3 873.8 C 278.6 869 283.7 867.2 289 867.2 C 294.3 867.2 299.4 869 305.8 873.8 L 305.8 1040 Z"/><circle cx="330" cy="891.2" r="6.1"/><path d="M 314.7 1040 L 314.7 898.1 C 320.5 893.7 325.2 892.1 330 892.1 C 334.8 892.1 339.5 893.7 345.3 898.1 L 345.3 1040 Z"/><circle cx="369.7" cy="856.8" r="6.9"/><path d="M 352.1 1040 L 352.1 864.8 C 358.8 859.7 364.2 857.8 369.7 857.8 C 375.3 857.8 380.6 859.7 387.3 864.8 L 387.3 1040 Z"/><circle cx="417.2" cy="872.2" r="6"/><path d="M 402.1 1040 L 402.1 879.1 C 407.9 874.7 412.5 873.1 417.2 873.1 C 422 873.1 426.6 874.7 432.3 879.1 L 432.3 1040 Z"/><circle cx="478.6" cy="876.9" r="7.8"/><path d="M 459 1040 L 459 885.8 C 466.4 880.1 472.4 878 478.6 878 C 484.8 878 490.8 880.1 498.3 885.8 L 498.3 1040 Z"/><circle cx="529.7" cy="880.2" r="7.2"/><path d="M 511.4 1040 L 511.4 888.5 C 518.3 883.2 523.9 881.3 529.7 881.3 C 535.5 881.3 541 883.2 548 888.5 L 548 1040 Z"/><circle cx="579.2" cy="887" r="7.5"/><path d="M 560.1 1040 L 560.1 895.7 C 567.4 890.2 573.2 888.2 579.2 888.2 C 585.2 888.2 591.1 890.2 598.3 895.7 L 598.3 1040 Z"/><circle cx="630.9" cy="874.5" r="5.3"/><path d="M 617.5 1040 L 617.5 880.6 C 622.6 876.7 626.7 875.3 630.9 875.3 C 635.2 875.3 639.2 876.7 644.3 880.6 L 644.3 1040 Z"/><circle cx="681.8" cy="860.4" r="5.9"/><path d="M 666.9 1040 L 666.9 867.1 C 672.6 862.8 677.1 861.2 681.8 861.2 C 686.5 861.2 691.1 862.8 696.8 867.1 L 696.8 1040 Z"/><circle cx="738.9" cy="848.1" r="8"/><path d="M 718.7 1040 L 718.7 857.3 C 726.4 851.4 732.5 849.3 738.9 849.3 C 745.3 849.3 751.4 851.4 759.1 857.3 L 759.1 1040 Z"/><circle cx="781.6" cy="831.8" r="7.6"/><path d="M 762.4 1040 L 762.4 840.5 C 769.7 835 775.5 832.9 781.6 832.9 C 787.7 832.9 793.5 835 800.8 840.5 L 800.8 1040 Z"/><circle cx="821.5" cy="849.9" r="8"/><path d="M 801.1 1040 L 801.1 859.2 C 808.8 853.3 815 851.1 821.5 851.1 C 827.9 851.1 834.1 853.3 841.8 859.2 L 841.8 1040 Z"/></g><g fill="#20260A" stroke="#20260A" fill-opacity="0.98" stroke-opacity="0.98" ><circle cx="-58.6" cy="891.2" r="21.5"/><path d="M -113 1040 L -113 915.8 C -92.3 900.1 -75.8 894.4 -58.6 894.4 C -41.5 894.4 -24.9 900.1 -4.3 915.8 L -4.3 1040 Z"/><circle cx="73.6" cy="891.8" r="20.3"/><path d="M 22.3 1040 L 22.3 915.1 C 41.8 900.2 57.4 894.8 73.6 894.8 C 89.8 894.8 105.4 900.2 124.9 915.1 L 124.9 1040 Z"/><circle cx="253.2" cy="899" r="24.4"/><path d="M 191.5 1040 L 191.5 927 C 214.9 909.1 233.7 902.6 253.2 902.6 C 272.7 902.6 291.5 909.1 315 927 L 315 1040 Z"/><circle cx="371.5" cy="903.3" r="22.7"/><path d="M 313.9 1040 L 313.9 929.4 C 335.8 912.8 353.3 906.7 371.5 906.7 C 389.7 906.7 407.2 912.8 429 929.4 L 429 1040 Z"/><circle cx="536.9" cy="911.3" r="18.3"/><path d="M 490.7 1040 L 490.7 932.3 C 508.3 918.9 522.3 914 536.9 914 C 551.6 914 565.6 918.9 583.2 932.3 L 583.2 1040 Z"/><circle cx="677.9" cy="899.6" r="24.7"/><path d="M 615.3 1040 L 615.3 928 C 639.1 909.9 658.1 903.3 677.9 903.3 C 697.7 903.3 716.7 909.9 740.5 928 L 740.5 1040 Z"/><circle cx="816.9" cy="916.4" r="18.9"/><path d="M 769 1040 L 769 938.1 C 787.2 924.2 801.8 919.2 816.9 919.2 C 832 919.2 846.6 924.2 864.8 938.1 L 864.8 1040 Z"/></g>
<rect width="800" height="1000" fill="url(#vigpilotplateau)"/>
<rect width="800" height="1000" filter="url(#coarsepilotplateau)" opacity="0.22" style="mix-blend-mode:overlay"/>
<rect width="800" height="1000" filter="url(#finepilotplateau)" opacity="0.34" style="mix-blend-mode:multiply"/>
<rect width="800" height="1000" filter="url(#finepilotplateau)" opacity="0.16" style="mix-blend-mode:screen"/>
</svg>
