<svg xmlns="http://www.w3.org/2000/svg" viewBox="0 0 640 640" width="640" height="640" role="img" aria-hidden="true" preserveAspectRatio="xMidYMid slice">
<title>benchmark-warfare/infrastructure-hostage</title>
<defs>
<linearGradient id="fbenchmarkwarfareinfrastructurehostage" x1="0" y1="0" x2="0.6" y2="1">
<stop offset="0" stop-color="#FF007A"/><stop offset="0.42" stop-color="#E8006F"/>
<stop offset="0.8" stop-color="#F2734A"/><stop offset="1" stop-color="#FDFF85"/>
</linearGradient>
<radialGradient id="gbenchmarkwarfareinfrastructurehostage" cx="46%" cy="30%" r="60%">
<stop offset="0" stop-color="#FDFF85" stop-opacity="0.3"/>
<stop offset="1" stop-color="#FDFF85" stop-opacity="0"/>
</radialGradient>
<linearGradient id="bbenchmarkwarfareinfrastructurehostage" x1="0" y1="0" x2="0" y2="1">
<stop offset="0" stop-color="#FDFF85" stop-opacity="0.42"/>
<stop offset="0.55" stop-color="#FDFF85" stop-opacity="0.15"/>
<stop offset="1" stop-color="#FDFF85" stop-opacity="0"/>
</linearGradient>
<filter id="sbenchmarkwarfareinfrastructurehostage" x="-25%" y="-25%" width="150%" height="150%">
<feGaussianBlur stdDeviation="22"/>
</filter>
<radialGradient id="vbenchmarkwarfareinfrastructurehostage" cx="50%" cy="40%" r="72%">
<stop offset="0.5" stop-color="#39001F" stop-opacity="0"/>
<stop offset="1" stop-color="#39001F" stop-opacity="0.58"/>
</radialGradient>
<filter id="nbenchmarkwarfareinfrastructurehostage" x="0" y="0" width="100%" height="100%">
<feTurbulence type="fractalNoise" baseFrequency="0.8" numOctaves="3" seed="11" result="t"/>
<feColorMatrix in="t" type="matrix" values="0 0 0 0 0 0 0 0 0 0 0 0 0 0 0 0.4 0 0 0 0"/>
</filter>
<style>.lit{fill:#FDFF85;stroke:none;fill-opacity:0.3}</style>
</defs>
<rect width="640" height="640" fill="url(#fbenchmarkwarfareinfrastructurehostage)"/>
<rect width="640" height="640" fill="url(#gbenchmarkwarfareinfrastructurehostage)"/>
<polygon points="179.2,192 460.8,192 588.8,640 51.19999999999999,640" fill="url(#bbenchmarkwarfareinfrastructurehostage)" filter="url(#sbenchmarkwarfareinfrastructurehostage)"/>
<g fill="#39001F" stroke="#39001F" fill-opacity="0.96" stroke-opacity="0.96"><ellipse cx="320" cy="179" rx="478.7" ry="172.3" fill="none" stroke-width="48"/><rect x="334.9" y="351.4" width="20" height="20" transform="rotate(63.8 334.9 351.4)"/><rect x="334.6" y="360.1" width="19.5" height="19.5" transform="rotate(86.8 334.6 360.1)"/><rect x="296.7" y="368.9" width="19.1" height="19.1" transform="rotate(56.4 296.7 368.9)"/><rect x="349.2" y="377.6" width="18.6" height="18.6" transform="rotate(59.7 349.2 377.6)"/><rect x="313.6" y="386.4" width="18.2" height="18.2" transform="rotate(89.7 313.6 386.4)"/><rect x="371.6" y="395.1" width="17.7" height="17.7" transform="rotate(87.7 371.6 395.1)"/><rect x="330.5" y="403.8" width="17.3" height="17.3" transform="rotate(86.8 330.5 403.8)"/><rect x="378.2" y="412.6" width="16.8" height="16.8" transform="rotate(7.1 378.2 412.6)"/><rect x="284.9" y="421.3" width="16.4" height="16.4" transform="rotate(84.4 284.9 421.3)"/><rect x="373.3" y="430.1" width="15.9" height="15.9" transform="rotate(30.9 373.3 430.1)"/><rect x="337.6" y="438.8" width="15.5" height="15.5" transform="rotate(19.6 337.6 438.8)"/><rect x="309.4" y="447.6" width="15" height="15" transform="rotate(85.9 309.4 447.6)"/><rect x="335.9" y="456.3" width="14.5" height="14.5" transform="rotate(54.1 335.9 456.3)"/><rect x="286.2" y="465.1" width="14.1" height="14.1" transform="rotate(40.3 286.2 465.1)"/><rect x="379" y="473.8" width="13.6" height="13.6" transform="rotate(49.1 379 473.8)"/><rect x="314.6" y="482.6" width="13.2" height="13.2" transform="rotate(88.8 314.6 482.6)"/><rect x="450.9" y="491.3" width="12.7" height="12.7" transform="rotate(30.9 450.9 491.3)"/><rect x="423.3" y="500.1" width="12.3" height="12.3" transform="rotate(67.7 423.3 500.1)"/><rect x="229.4" y="508.8" width="11.8" height="11.8" transform="rotate(24.6 229.4 508.8)"/><rect x="298.3" y="517.5" width="11.4" height="11.4" transform="rotate(60.9 298.3 517.5)"/><rect x="231.8" y="526.3" width="10.9" height="10.9" transform="rotate(58.6 231.8 526.3)"/><rect x="271.1" y="535" width="10.5" height="10.5" transform="rotate(36.1 271.1 535)"/><rect x="330.8" y="543.8" width="10" height="10" transform="rotate(72.4 330.8 543.8)"/><rect x="164" y="552.5" width="9.5" height="9.5" transform="rotate(7.8 164 552.5)"/><rect x="434.9" y="561.3" width="9.1" height="9.1" transform="rotate(24.1 434.9 561.3)"/><rect x="478.9" y="570" width="8.6" height="8.6" transform="rotate(47.4 478.9 570)"/><rect x="403" y="578.8" width="8.2" height="8.2" transform="rotate(56 403 578.8)"/><rect x="163.7" y="587.5" width="7.7" height="7.7" transform="rotate(29.1 163.7 587.5)"/><rect x="507.3" y="596.3" width="7.3" height="7.3" transform="rotate(63 507.3 596.3)"/><rect x="481.7" y="605" width="6.8" height="6.8" transform="rotate(29 481.7 605)"/><rect x="144.2" y="613.8" width="6.4" height="6.4" transform="rotate(37.1 144.2 613.8)"/><rect x="225.4" y="622.5" width="5.9" height="5.9" transform="rotate(68.5 225.4 622.5)"/><rect x="436.2" y="631.3" width="5.5" height="5.5" transform="rotate(32.7 436.2 631.3)"/><rect x="193.7" y="640" width="5" height="5" transform="rotate(12.9 193.7 640)"/></g>
<rect width="640" height="640" fill="url(#vbenchmarkwarfareinfrastructurehostage)"/>
<rect width="640" height="640" filter="url(#nbenchmarkwarfareinfrastructurehostage)" opacity="0.3" style="mix-blend-mode:multiply"/>
<rect width="640" height="640" filter="url(#nbenchmarkwarfareinfrastructurehostage)" opacity="0.14" style="mix-blend-mode:screen"/>
</svg>
