<svg xmlns="http://www.w3.org/2000/svg" viewBox="0 0 640 640" width="640" height="640" role="img" aria-hidden="true" preserveAspectRatio="xMidYMid slice">
<title>cognition-bleed/depolarization-drift</title>
<defs>
<linearGradient id="fcognitionbleeddepolarizationdrift" x1="0" y1="0" x2="0.6" y2="1">
<stop offset="0" stop-color="#FF6A1F"/><stop offset="0.42" stop-color="#E74707"/>
<stop offset="0.8" stop-color="#F2A03A"/><stop offset="1" stop-color="#FDFF85"/>
</linearGradient>
<radialGradient id="gcognitionbleeddepolarizationdrift" cx="46%" cy="30%" r="60%">
<stop offset="0" stop-color="#FDFF85" stop-opacity="0.3"/>
<stop offset="1" stop-color="#FDFF85" stop-opacity="0"/>
</radialGradient>
<linearGradient id="bcognitionbleeddepolarizationdrift" x1="0" y1="0" x2="0" y2="1">
<stop offset="0" stop-color="#FDFF85" stop-opacity="0.42"/>
<stop offset="0.55" stop-color="#FDFF85" stop-opacity="0.15"/>
<stop offset="1" stop-color="#FDFF85" stop-opacity="0"/>
</linearGradient>
<filter id="scognitionbleeddepolarizationdrift" x="-25%" y="-25%" width="150%" height="150%">
<feGaussianBlur stdDeviation="22"/>
</filter>
<radialGradient id="vcognitionbleeddepolarizationdrift" cx="50%" cy="40%" r="72%">
<stop offset="0.5" stop-color="#3B1101" stop-opacity="0"/>
<stop offset="1" stop-color="#3B1101" stop-opacity="0.58"/>
</radialGradient>
<filter id="ncognitionbleeddepolarizationdrift" x="0" y="0" width="100%" height="100%">
<feTurbulence type="fractalNoise" baseFrequency="0.8" numOctaves="3" seed="11" result="t"/>
<feColorMatrix in="t" type="matrix" values="0 0 0 0 0 0 0 0 0 0 0 0 0 0 0 0.4 0 0 0 0"/>
</filter>
<style>.lit{fill:#FDFF85;stroke:none;fill-opacity:0.3}</style>
</defs>
<rect width="640" height="640" fill="url(#fcognitionbleeddepolarizationdrift)"/>
<rect width="640" height="640" fill="url(#gcognitionbleeddepolarizationdrift)"/>

<g fill="#3B1101" stroke="#3B1101" fill-opacity="0.97" stroke-opacity="0.97"><rect x="-64" y="550.4" width="768" height="192"/><polyline points="12.8,182.7 100.6,251.7 188.3,258.5 276.1,305 363.9,297.1 451.7,278.2 539.4,324.2 627.2,386.6" fill="none" stroke-width="32" stroke-linejoin="round"/><rect class="lit" x="0" y="110.1" width="640" height="3"/><rect class="lit" x="0" y="220.2" width="640" height="3"/><rect class="lit" x="0" y="330.2" width="640" height="3"/><rect class="lit" x="0" y="440.3" width="640" height="3"/></g>
<rect width="640" height="640" fill="url(#vcognitionbleeddepolarizationdrift)"/>
<rect width="640" height="640" filter="url(#ncognitionbleeddepolarizationdrift)" opacity="0.3" style="mix-blend-mode:multiply"/>
<rect width="640" height="640" filter="url(#ncognitionbleeddepolarizationdrift)" opacity="0.14" style="mix-blend-mode:screen"/>
</svg>
