<svg xmlns="http://www.w3.org/2000/svg" viewBox="0 0 640 640" width="640" height="640" role="img" aria-hidden="true" preserveAspectRatio="xMidYMid slice">
<title>exposure-blindspot/model-debt</title>
<defs>
<linearGradient id="fexposureblindspotmodeldebt" x1="0" y1="0" x2="0.6" y2="1">
<stop offset="0" stop-color="#0FA6FF"/><stop offset="0.42" stop-color="#0A7FDA"/>
<stop offset="0.8" stop-color="#23B9A6"/><stop offset="1" stop-color="#E6FF9C"/>
</linearGradient>
<radialGradient id="gexposureblindspotmodeldebt" cx="46%" cy="30%" r="60%">
<stop offset="0" stop-color="#E6FF9C" stop-opacity="0.3"/>
<stop offset="1" stop-color="#E6FF9C" stop-opacity="0"/>
</radialGradient>
<linearGradient id="bexposureblindspotmodeldebt" x1="0" y1="0" x2="0" y2="1">
<stop offset="0" stop-color="#E6FF9C" stop-opacity="0.42"/>
<stop offset="0.55" stop-color="#E6FF9C" stop-opacity="0.15"/>
<stop offset="1" stop-color="#E6FF9C" stop-opacity="0"/>
</linearGradient>
<filter id="sexposureblindspotmodeldebt" x="-25%" y="-25%" width="150%" height="150%">
<feGaussianBlur stdDeviation="22"/>
</filter>
<radialGradient id="vexposureblindspotmodeldebt" cx="50%" cy="40%" r="72%">
<stop offset="0.5" stop-color="#022638" stop-opacity="0"/>
<stop offset="1" stop-color="#022638" stop-opacity="0.58"/>
</radialGradient>
<filter id="nexposureblindspotmodeldebt" x="0" y="0" width="100%" height="100%">
<feTurbulence type="fractalNoise" baseFrequency="0.8" numOctaves="3" seed="11" result="t"/>
<feColorMatrix in="t" type="matrix" values="0 0 0 0 0 0 0 0 0 0 0 0 0 0 0 0.4 0 0 0 0"/>
</filter>
<style>.lit{fill:#E6FF9C;stroke:none;fill-opacity:0.3}</style>
</defs>
<rect width="640" height="640" fill="url(#fexposureblindspotmodeldebt)"/>
<rect width="640" height="640" fill="url(#gexposureblindspotmodeldebt)"/>
<polygon points="153.6,0 486.4,0 601.6,640 38.39999999999998,640" fill="url(#bexposureblindspotmodeldebt)" filter="url(#sexposureblindspotmodeldebt)"/>
<g fill="#022638" stroke="#022638" fill-opacity="0.92" stroke-opacity="0.92"><circle cx="442.1" cy="-32" r="15"/><circle cx="488" cy="-20.8" r="14.8"/><rect x="126.5" y="-9.7" width="29.2" height="29.2" transform="rotate(83.6 126.5 -9.7)"/><rect x="268.8" y="1.5" width="28.9" height="28.9" transform="rotate(10.9 268.8 1.5)"/><circle cx="474.7" cy="12.7" r="14.2"/><rect x="243.3" y="23.9" width="28.1" height="28.1" transform="rotate(4.1 243.3 23.9)"/><rect x="45.4" y="35" width="27.7" height="27.7" transform="rotate(50.6 45.4 35)"/><rect x="376.3" y="46.2" width="27.3" height="27.3" transform="rotate(42.7 376.3 46.2)"/><circle cx="293.5" cy="57.4" r="13.5"/><rect x="186.3" y="68.6" width="26.6" height="26.6" transform="rotate(55.7 186.3 68.6)"/><rect x="411.6" y="79.7" width="26.2" height="26.2" transform="rotate(74.2 411.6 79.7)"/><rect x="341" y="90.9" width="25.8" height="25.8" transform="rotate(66.7 341 90.9)"/><circle cx="344.9" cy="102.1" r="12.7"/><circle cx="311.6" cy="113.3" r="12.5"/><rect x="406.7" y="124.4" width="24.7" height="24.7" transform="rotate(55.2 406.7 124.4)"/><rect x="598.5" y="135.6" width="24.3" height="24.3" transform="rotate(80.3 598.5 135.6)"/><rect x="235.2" y="146.8" width="23.9" height="23.9" transform="rotate(75.6 235.2 146.8)"/><circle cx="516.2" cy="158" r="11.8"/><rect x="420.7" y="169.1" width="23.1" height="23.1" transform="rotate(38.7 420.7 169.1)"/><rect x="43.6" y="180.3" width="22.8" height="22.8" transform="rotate(66.9 43.6 180.3)"/><circle cx="269.9" cy="191.5" r="11.2"/><rect x="404.4" y="202.7" width="22" height="22" transform="rotate(21.8 404.4 202.7)"/><circle cx="45.9" cy="213.8" r="10.8"/><rect x="327.7" y="225" width="21.2" height="21.2" transform="rotate(41.3 327.7 225)"/><circle cx="161.1" cy="236.2" r="10.4"/><rect x="299.9" y="247.4" width="20.5" height="20.5" transform="rotate(61.5 299.9 247.4)"/><rect x="153.3" y="258.5" width="20.1" height="20.1" transform="rotate(85.5 153.3 258.5)"/><rect x="196" y="269.7" width="19.7" height="19.7" transform="rotate(78.8 196 269.7)"/><rect x="527.5" y="280.9" width="19.3" height="19.3" transform="rotate(44.9 527.5 280.9)"/><rect x="479.4" y="292.1" width="19" height="19" transform="rotate(9.9 479.4 292.1)"/><rect x="568.8" y="303.2" width="18.6" height="18.6" transform="rotate(37.9 568.8 303.2)"/><circle cx="154.2" cy="314.4" r="9.1"/><rect x="478.8" y="325.6" width="17.8" height="17.8" transform="rotate(48 478.8 325.6)"/><circle cx="361.5" cy="336.8" r="8.7"/><rect x="199.3" y="347.9" width="17" height="17" transform="rotate(11.7 199.3 347.9)"/><rect x="575.9" y="359.1" width="16.7" height="16.7" transform="rotate(8.9 575.9 359.1)"/><rect x="123.7" y="370.3" width="16.3" height="16.3" transform="rotate(63.9 123.7 370.3)"/><rect x="340.5" y="381.5" width="15.9" height="15.9" transform="rotate(61.9 340.5 381.5)"/><rect x="327.6" y="392.6" width="15.5" height="15.5" transform="rotate(88.6 327.6 392.6)"/><rect x="543.1" y="403.8" width="15.1" height="15.1" transform="rotate(69.2 543.1 403.8)"/><rect x="139" y="415" width="14.8" height="14.8" transform="rotate(18.5 139 415)"/><circle cx="506" cy="426.2" r="7.2"/><circle cx="411.6" cy="437.3" r="7"/><rect x="256.1" y="448.5" width="13.6" height="13.6" transform="rotate(86.1 256.1 448.5)"/><circle cx="428.8" cy="459.7" r="6.6"/><rect x="564" y="470.9" width="12.9" height="12.9" transform="rotate(55.5 564 470.9)"/><rect x="569.6" y="482" width="12.5" height="12.5" transform="rotate(41.4 569.6 482)"/><rect x="519.1" y="493.2" width="12.1" height="12.1" transform="rotate(79.1 519.1 493.2)"/><rect x="112.9" y="504.4" width="11.7" height="11.7" transform="rotate(21.9 112.9 504.4)"/><circle cx="428.8" cy="515.6" r="5.7"/><circle cx="555.7" cy="526.7" r="5.5"/><circle cx="533.2" cy="537.9" r="5.3"/><rect x="51" y="549.1" width="10.2" height="10.2" transform="rotate(74.6 51 549.1)"/><rect x="102.7" y="560.3" width="9.8" height="9.8" transform="rotate(51.1 102.7 560.3)"/><circle cx="521.4" cy="571.4" r="4.7"/><rect x="510.1" y="582.6" width="9" height="9" transform="rotate(36.6 510.1 582.6)"/><circle cx="344.5" cy="593.8" r="4.3"/><circle cx="488" cy="605" r="4.1"/><rect x="201.2" y="616.1" width="7.9" height="7.9" transform="rotate(64.3 201.2 616.1)"/><circle cx="349.9" cy="627.3" r="3.8"/><circle cx="299.9" cy="638.5" r="3.6"/><circle cx="171.3" cy="649.7" r="3.4"/><rect x="297.2" y="660.8" width="6.4" height="6.4" transform="rotate(29.2 297.2 660.8)"/><circle cx="61.3" cy="672" r="3"/></g>
<rect width="640" height="640" fill="url(#vexposureblindspotmodeldebt)"/>
<rect width="640" height="640" filter="url(#nexposureblindspotmodeldebt)" opacity="0.3" style="mix-blend-mode:multiply"/>
<rect width="640" height="640" filter="url(#nexposureblindspotmodeldebt)" opacity="0.14" style="mix-blend-mode:screen"/>
</svg>
