<svg xmlns="http://www.w3.org/2000/svg" viewBox="0 0 640 640" width="640" height="640" role="img" aria-hidden="true" preserveAspectRatio="xMidYMid slice">
<title>moat-shift/provenance-rent</title>
<defs>
<linearGradient id="fmoatshiftprovenancerent" x1="0" y1="0" x2="0.6" y2="1">
<stop offset="0" stop-color="#0FA6FF"/><stop offset="0.42" stop-color="#0A7FDA"/>
<stop offset="0.8" stop-color="#23B9A6"/><stop offset="1" stop-color="#E6FF9C"/>
</linearGradient>
<radialGradient id="gmoatshiftprovenancerent" cx="46%" cy="30%" r="60%">
<stop offset="0" stop-color="#E6FF9C" stop-opacity="0.3"/>
<stop offset="1" stop-color="#E6FF9C" stop-opacity="0"/>
</radialGradient>
<linearGradient id="bmoatshiftprovenancerent" x1="0" y1="0" x2="0" y2="1">
<stop offset="0" stop-color="#E6FF9C" stop-opacity="0.42"/>
<stop offset="0.55" stop-color="#E6FF9C" stop-opacity="0.15"/>
<stop offset="1" stop-color="#E6FF9C" stop-opacity="0"/>
</linearGradient>
<filter id="smoatshiftprovenancerent" x="-25%" y="-25%" width="150%" height="150%">
<feGaussianBlur stdDeviation="22"/>
</filter>
<radialGradient id="vmoatshiftprovenancerent" cx="50%" cy="40%" r="72%">
<stop offset="0.5" stop-color="#022638" stop-opacity="0"/>
<stop offset="1" stop-color="#022638" stop-opacity="0.58"/>
</radialGradient>
<filter id="nmoatshiftprovenancerent" x="0" y="0" width="100%" height="100%">
<feTurbulence type="fractalNoise" baseFrequency="0.8" numOctaves="3" seed="11" result="t"/>
<feColorMatrix in="t" type="matrix" values="0 0 0 0 0 0 0 0 0 0 0 0 0 0 0 0.4 0 0 0 0"/>
</filter>
<style>.lit{fill:#E6FF9C;stroke:none;fill-opacity:0.3}</style>
</defs>
<rect width="640" height="640" fill="url(#fmoatshiftprovenancerent)"/>
<rect width="640" height="640" fill="url(#gmoatshiftprovenancerent)"/>

<g fill="#022638" stroke="#022638" fill-opacity="0.97" stroke-opacity="0.97"><rect x="-64" y="550.4" width="768" height="192"/><polyline points="12.8,268.9 100.6,347.9 188.3,442.6 276.1,539.5 363.9,532 451.7,546.6 539.4,541.6 627.2,537.9" fill="none" stroke-width="32" stroke-linejoin="round"/><rect class="lit" x="0" y="110.1" width="640" height="3"/><rect class="lit" x="0" y="220.2" width="640" height="3"/><rect class="lit" x="0" y="330.2" width="640" height="3"/><rect class="lit" x="0" y="440.3" width="640" height="3"/></g>
<rect width="640" height="640" fill="url(#vmoatshiftprovenancerent)"/>
<rect width="640" height="640" filter="url(#nmoatshiftprovenancerent)" opacity="0.3" style="mix-blend-mode:multiply"/>
<rect width="640" height="640" filter="url(#nmoatshiftprovenancerent)" opacity="0.14" style="mix-blend-mode:screen"/>
</svg>
