<svg xmlns="http://www.w3.org/2000/svg" viewBox="0 0 640 640" width="640" height="640" role="img" aria-hidden="true" preserveAspectRatio="xMidYMid slice">
<title>persuasion-blindspot/sycophancy-drift</title>
<defs>
<linearGradient id="fpersuasionblindspotsycophancydrift" x1="0" y1="0" x2="0.6" y2="1">
<stop offset="0" stop-color="#FF6A1F"/><stop offset="0.42" stop-color="#E74707"/>
<stop offset="0.8" stop-color="#F2A03A"/><stop offset="1" stop-color="#FDFF85"/>
</linearGradient>
<radialGradient id="gpersuasionblindspotsycophancydrift" cx="46%" cy="30%" r="60%">
<stop offset="0" stop-color="#FDFF85" stop-opacity="0.3"/>
<stop offset="1" stop-color="#FDFF85" stop-opacity="0"/>
</radialGradient>
<linearGradient id="bpersuasionblindspotsycophancydrift" x1="0" y1="0" x2="0" y2="1">
<stop offset="0" stop-color="#FDFF85" stop-opacity="0.42"/>
<stop offset="0.55" stop-color="#FDFF85" stop-opacity="0.15"/>
<stop offset="1" stop-color="#FDFF85" stop-opacity="0"/>
</linearGradient>
<filter id="spersuasionblindspotsycophancydrift" x="-25%" y="-25%" width="150%" height="150%">
<feGaussianBlur stdDeviation="22"/>
</filter>
<radialGradient id="vpersuasionblindspotsycophancydrift" cx="50%" cy="40%" r="72%">
<stop offset="0.5" stop-color="#3B1101" stop-opacity="0"/>
<stop offset="1" stop-color="#3B1101" stop-opacity="0.58"/>
</radialGradient>
<filter id="npersuasionblindspotsycophancydrift" x="0" y="0" width="100%" height="100%">
<feTurbulence type="fractalNoise" baseFrequency="0.8" numOctaves="3" seed="11" result="t"/>
<feColorMatrix in="t" type="matrix" values="0 0 0 0 0 0 0 0 0 0 0 0 0 0 0 0.4 0 0 0 0"/>
</filter>
<style>.lit{fill:#FDFF85;stroke:none;fill-opacity:0.3}</style>
</defs>
<rect width="640" height="640" fill="url(#fpersuasionblindspotsycophancydrift)"/>
<rect width="640" height="640" fill="url(#gpersuasionblindspotsycophancydrift)"/>
<polygon points="153.6,0 486.4,0 601.6,640 38.39999999999998,640" fill="url(#bpersuasionblindspotsycophancydrift)" filter="url(#spersuasionblindspotsycophancydrift)"/>
<g fill="#3B1101" stroke="#3B1101" fill-opacity="0.92" stroke-opacity="0.92"><circle cx="559.5" cy="-32" r="15"/><rect x="304" y="-20.8" width="29.6" height="29.6" transform="rotate(36.2 304 -20.8)"/><rect x="457.9" y="-9.7" width="29.2" height="29.2" transform="rotate(59.6 457.9 -9.7)"/><rect x="399.6" y="1.5" width="28.9" height="28.9" transform="rotate(84.4 399.6 1.5)"/><rect x="105" y="12.7" width="28.5" height="28.5" transform="rotate(62.8 105 12.7)"/><rect x="190.2" y="23.9" width="28.1" height="28.1" transform="rotate(84.9 190.2 23.9)"/><circle cx="86.7" cy="35" r="13.9"/><rect x="497.9" y="46.2" width="27.3" height="27.3" transform="rotate(5.7 497.9 46.2)"/><circle cx="531.5" cy="57.4" r="13.5"/><rect x="61.6" y="68.6" width="26.6" height="26.6" transform="rotate(72.8 61.6 68.6)"/><rect x="541.4" y="79.7" width="26.2" height="26.2" transform="rotate(50.5 541.4 79.7)"/><circle cx="348.6" cy="90.9" r="12.9"/><rect x="329.4" y="102.1" width="25.4" height="25.4" transform="rotate(71.7 329.4 102.1)"/><rect x="145.5" y="113.3" width="25" height="25" transform="rotate(56.4 145.5 113.3)"/><circle cx="214" cy="124.4" r="12.3"/><rect x="225.9" y="135.6" width="24.3" height="24.3" transform="rotate(33 225.9 135.6)"/><rect x="61" y="146.8" width="23.9" height="23.9" transform="rotate(85.7 61 146.8)"/><circle cx="201.5" cy="158" r="11.8"/><rect x="401.7" y="169.1" width="23.1" height="23.1" transform="rotate(49.5 401.7 169.1)"/><rect x="429" y="180.3" width="22.8" height="22.8" transform="rotate(11.2 429 180.3)"/><rect x="142.5" y="191.5" width="22.4" height="22.4" transform="rotate(0.8 142.5 191.5)"/><rect x="578.1" y="202.7" width="22" height="22" transform="rotate(41 578.1 202.7)"/><rect x="355.9" y="213.8" width="21.6" height="21.6" transform="rotate(17.3 355.9 213.8)"/><rect x="238" y="225" width="21.2" height="21.2" transform="rotate(50.1 238 225)"/><circle cx="299.6" cy="236.2" r="10.4"/><circle cx="491.5" cy="247.4" r="10.2"/><rect x="325.9" y="258.5" width="20.1" height="20.1" transform="rotate(24.2 325.9 258.5)"/><rect x="286" y="269.7" width="19.7" height="19.7" transform="rotate(78.2 286 269.7)"/><circle cx="236.2" cy="280.9" r="9.7"/><rect x="348.4" y="292.1" width="19" height="19" transform="rotate(42 348.4 292.1)"/><rect x="44" y="303.2" width="18.6" height="18.6" transform="rotate(62.4 44 303.2)"/><rect x="414.9" y="314.4" width="18.2" height="18.2" transform="rotate(56.6 414.9 314.4)"/><circle cx="428.6" cy="325.6" r="8.9"/><rect x="211.7" y="336.8" width="17.4" height="17.4" transform="rotate(23.6 211.7 336.8)"/><circle cx="236.3" cy="347.9" r="8.5"/><rect x="309.4" y="359.1" width="16.7" height="16.7" transform="rotate(23.9 309.4 359.1)"/><rect x="128.1" y="370.3" width="16.3" height="16.3" transform="rotate(33.7 128.1 370.3)"/><rect x="563.3" y="381.5" width="15.9" height="15.9" transform="rotate(9.6 563.3 381.5)"/><rect x="247.6" y="392.6" width="15.5" height="15.5" transform="rotate(55.8 247.6 392.6)"/><rect x="46.6" y="403.8" width="15.1" height="15.1" transform="rotate(66.4 46.6 403.8)"/><circle cx="232.8" cy="415" r="7.4"/><rect x="226.3" y="426.2" width="14.4" height="14.4" transform="rotate(50.5 226.3 426.2)"/><rect x="569.1" y="437.3" width="14" height="14" transform="rotate(64.4 569.1 437.3)"/><rect x="131.8" y="448.5" width="13.6" height="13.6" transform="rotate(9.5 131.8 448.5)"/><circle cx="209.9" cy="459.7" r="6.6"/><circle cx="560.2" cy="470.9" r="6.4"/><rect x="161.5" y="482" width="12.5" height="12.5" transform="rotate(53.7 161.5 482)"/><rect x="295.6" y="493.2" width="12.1" height="12.1" transform="rotate(42 295.6 493.2)"/><circle cx="436.1" cy="504.4" r="5.9"/><rect x="401.2" y="515.6" width="11.3" height="11.3" transform="rotate(89.8 401.2 515.6)"/><rect x="392" y="526.7" width="11" height="11" transform="rotate(70.5 392 526.7)"/><rect x="510.5" y="537.9" width="10.6" height="10.6" transform="rotate(31.1 510.5 537.9)"/><rect x="456.2" y="549.1" width="10.2" height="10.2" transform="rotate(46.6 456.2 549.1)"/><circle cx="348.7" cy="560.3" r="4.9"/><rect x="414.6" y="571.4" width="9.4" height="9.4" transform="rotate(61.1 414.6 571.4)"/><circle cx="306.1" cy="582.6" r="4.5"/><circle cx="83.6" cy="593.8" r="4.3"/><rect x="129.1" y="605" width="8.3" height="8.3" transform="rotate(34.2 129.1 605)"/><circle cx="289" cy="616.1" r="4"/><rect x="359.4" y="627.3" width="7.5" height="7.5" transform="rotate(64.1 359.4 627.3)"/><circle cx="514.3" cy="638.5" r="3.6"/><circle cx="344.1" cy="649.7" r="3.4"/><circle cx="215.9" cy="660.8" r="3.2"/><circle cx="317.8" cy="672" r="3"/></g>
<rect width="640" height="640" fill="url(#vpersuasionblindspotsycophancydrift)"/>
<rect width="640" height="640" filter="url(#npersuasionblindspotsycophancydrift)" opacity="0.3" style="mix-blend-mode:multiply"/>
<rect width="640" height="640" filter="url(#npersuasionblindspotsycophancydrift)" opacity="0.14" style="mix-blend-mode:screen"/>
</svg>
