<svg xmlns="http://www.w3.org/2000/svg" viewBox="0 0 640 640" width="640" height="640" role="img" aria-hidden="true" preserveAspectRatio="xMidYMid slice">
<title>proof-mandate/audit-velocity</title>
<defs>
<linearGradient id="fproofmandateauditvelocity" x1="0" y1="0" x2="0.6" y2="1">
<stop offset="0" stop-color="#FF007A"/><stop offset="0.42" stop-color="#E8006F"/>
<stop offset="0.8" stop-color="#F2734A"/><stop offset="1" stop-color="#FDFF85"/>
</linearGradient>
<radialGradient id="gproofmandateauditvelocity" cx="46%" cy="30%" r="60%">
<stop offset="0" stop-color="#FDFF85" stop-opacity="0.3"/>
<stop offset="1" stop-color="#FDFF85" stop-opacity="0"/>
</radialGradient>
<linearGradient id="bproofmandateauditvelocity" x1="0" y1="0" x2="0" y2="1">
<stop offset="0" stop-color="#FDFF85" stop-opacity="0.42"/>
<stop offset="0.55" stop-color="#FDFF85" stop-opacity="0.15"/>
<stop offset="1" stop-color="#FDFF85" stop-opacity="0"/>
</linearGradient>
<filter id="sproofmandateauditvelocity" x="-25%" y="-25%" width="150%" height="150%">
<feGaussianBlur stdDeviation="22"/>
</filter>
<radialGradient id="vproofmandateauditvelocity" cx="50%" cy="40%" r="72%">
<stop offset="0.5" stop-color="#39001F" stop-opacity="0"/>
<stop offset="1" stop-color="#39001F" stop-opacity="0.58"/>
</radialGradient>
<filter id="nproofmandateauditvelocity" x="0" y="0" width="100%" height="100%">
<feTurbulence type="fractalNoise" baseFrequency="0.8" numOctaves="3" seed="11" result="t"/>
<feColorMatrix in="t" type="matrix" values="0 0 0 0 0 0 0 0 0 0 0 0 0 0 0 0.4 0 0 0 0"/>
</filter>
<style>.lit{fill:#FDFF85;stroke:none;fill-opacity:0.3}</style>
</defs>
<rect width="640" height="640" fill="url(#fproofmandateauditvelocity)"/>
<rect width="640" height="640" fill="url(#gproofmandateauditvelocity)"/>
<polygon points="179.2,192 460.8,192 588.8,640 51.19999999999999,640" fill="url(#bproofmandateauditvelocity)" filter="url(#sproofmandateauditvelocity)"/>
<g fill="#39001F" stroke="#39001F" fill-opacity="0.96" stroke-opacity="0.96"><ellipse cx="320" cy="163.3" rx="506.1" ry="182.2" fill="none" stroke-width="48"/><rect x="335" y="345.5" width="20" height="20" transform="rotate(89 335 345.5)"/><rect x="289.1" y="354.5" width="19.5" height="19.5" transform="rotate(72.9 289.1 354.5)"/><rect x="317.1" y="363.4" width="19.1" height="19.1" transform="rotate(75.1 317.1 363.4)"/><rect x="357.5" y="372.3" width="18.6" height="18.6" transform="rotate(75 357.5 372.3)"/><rect x="292.4" y="381.2" width="18.2" height="18.2" transform="rotate(52 292.4 381.2)"/><rect x="297.8" y="390.1" width="17.7" height="17.7" transform="rotate(30.6 297.8 390.1)"/><rect x="254.4" y="399.1" width="17.3" height="17.3" transform="rotate(75 254.4 399.1)"/><rect x="370.3" y="408" width="16.8" height="16.8" transform="rotate(31.8 370.3 408)"/><rect x="337.6" y="416.9" width="16.4" height="16.4" transform="rotate(8.6 337.6 416.9)"/><rect x="324.7" y="425.8" width="15.9" height="15.9" transform="rotate(61.6 324.7 425.8)"/><rect x="281.3" y="434.8" width="15.5" height="15.5" transform="rotate(10.6 281.3 434.8)"/><rect x="271" y="443.7" width="15" height="15" transform="rotate(47.1 271 443.7)"/><rect x="222.2" y="452.6" width="14.5" height="14.5" transform="rotate(64.6 222.2 452.6)"/><rect x="428.8" y="461.5" width="14.1" height="14.1" transform="rotate(81.7 428.8 461.5)"/><rect x="231.3" y="470.5" width="13.6" height="13.6" transform="rotate(13.3 231.3 470.5)"/><rect x="298.1" y="479.4" width="13.2" height="13.2" transform="rotate(77.4 298.1 479.4)"/><rect x="387.3" y="488.3" width="12.7" height="12.7" transform="rotate(24.9 387.3 488.3)"/><rect x="194.3" y="497.2" width="12.3" height="12.3" transform="rotate(48.6 194.3 497.2)"/><rect x="250.8" y="506.2" width="11.8" height="11.8" transform="rotate(89.9 250.8 506.2)"/><rect x="251.9" y="515.1" width="11.4" height="11.4" transform="rotate(80.8 251.9 515.1)"/><rect x="343.7" y="524" width="10.9" height="10.9" transform="rotate(37.2 343.7 524)"/><rect x="379.4" y="532.9" width="10.5" height="10.5" transform="rotate(32.3 379.4 532.9)"/><rect x="436.1" y="541.8" width="10" height="10" transform="rotate(50.3 436.1 541.8)"/><rect x="383.1" y="550.8" width="9.5" height="9.5" transform="rotate(80.8 383.1 550.8)"/><rect x="492.6" y="559.7" width="9.1" height="9.1" transform="rotate(47.6 492.6 559.7)"/><rect x="189" y="568.6" width="8.6" height="8.6" transform="rotate(41.8 189 568.6)"/><rect x="508.6" y="577.5" width="8.2" height="8.2" transform="rotate(14.2 508.6 577.5)"/><rect x="463.7" y="586.5" width="7.7" height="7.7" transform="rotate(60.2 463.7 586.5)"/><rect x="219.7" y="595.4" width="7.3" height="7.3" transform="rotate(42.9 219.7 595.4)"/><rect x="421.4" y="604.3" width="6.8" height="6.8" transform="rotate(78.4 421.4 604.3)"/><rect x="497.1" y="613.2" width="6.4" height="6.4" transform="rotate(12.9 497.1 613.2)"/><rect x="445.5" y="622.2" width="5.9" height="5.9" transform="rotate(42.2 445.5 622.2)"/><rect x="220" y="631.1" width="5.5" height="5.5" transform="rotate(81 220 631.1)"/><rect x="460" y="640" width="5" height="5" transform="rotate(75.9 460 640)"/></g>
<rect width="640" height="640" fill="url(#vproofmandateauditvelocity)"/>
<rect width="640" height="640" filter="url(#nproofmandateauditvelocity)" opacity="0.3" style="mix-blend-mode:multiply"/>
<rect width="640" height="640" filter="url(#nproofmandateauditvelocity)" opacity="0.14" style="mix-blend-mode:screen"/>
</svg>
