<svg xmlns="http://www.w3.org/2000/svg" viewBox="0 0 640 640" width="640" height="640" role="img" aria-hidden="true" preserveAspectRatio="xMidYMid slice">
<title>skill-erosion/default-offload</title>
<defs>
<linearGradient id="fskillerosiondefaultoffload" x1="0" y1="0" x2="0.6" y2="1">
<stop offset="0" stop-color="#0FA6FF"/><stop offset="0.42" stop-color="#0A7FDA"/>
<stop offset="0.8" stop-color="#23B9A6"/><stop offset="1" stop-color="#E6FF9C"/>
</linearGradient>
<radialGradient id="gskillerosiondefaultoffload" cx="46%" cy="30%" r="60%">
<stop offset="0" stop-color="#E6FF9C" stop-opacity="0.3"/>
<stop offset="1" stop-color="#E6FF9C" stop-opacity="0"/>
</radialGradient>
<linearGradient id="bskillerosiondefaultoffload" x1="0" y1="0" x2="0" y2="1">
<stop offset="0" stop-color="#E6FF9C" stop-opacity="0.42"/>
<stop offset="0.55" stop-color="#E6FF9C" stop-opacity="0.15"/>
<stop offset="1" stop-color="#E6FF9C" stop-opacity="0"/>
</linearGradient>
<filter id="sskillerosiondefaultoffload" x="-25%" y="-25%" width="150%" height="150%">
<feGaussianBlur stdDeviation="22"/>
</filter>
<radialGradient id="vskillerosiondefaultoffload" cx="50%" cy="40%" r="72%">
<stop offset="0.5" stop-color="#022638" stop-opacity="0"/>
<stop offset="1" stop-color="#022638" stop-opacity="0.58"/>
</radialGradient>
<filter id="nskillerosiondefaultoffload" x="0" y="0" width="100%" height="100%">
<feTurbulence type="fractalNoise" baseFrequency="0.8" numOctaves="3" seed="11" result="t"/>
<feColorMatrix in="t" type="matrix" values="0 0 0 0 0 0 0 0 0 0 0 0 0 0 0 0.4 0 0 0 0"/>
</filter>
<style>.lit{fill:#E6FF9C;stroke:none;fill-opacity:0.3}</style>
</defs>
<rect width="640" height="640" fill="url(#fskillerosiondefaultoffload)"/>
<rect width="640" height="640" fill="url(#gskillerosiondefaultoffload)"/>
<polygon points="179.2,192 460.8,192 588.8,640 51.19999999999999,640" fill="url(#bskillerosiondefaultoffload)" filter="url(#sskillerosiondefaultoffload)"/>
<g fill="#022638" stroke="#022638" fill-opacity="0.96" stroke-opacity="0.96"><ellipse cx="320" cy="134" rx="485.4" ry="174.7" fill="none" stroke-width="48"/><rect x="284.9" y="308.7" width="20" height="20" transform="rotate(38.5 284.9 308.7)"/><rect x="307" y="318.7" width="19.5" height="19.5" transform="rotate(21.8 307 318.7)"/><rect x="316.7" y="328.8" width="19.1" height="19.1" transform="rotate(7.2 316.7 328.8)"/><rect x="296.8" y="338.8" width="18.6" height="18.6" transform="rotate(57.5 296.8 338.8)"/><rect x="373.4" y="348.8" width="18.2" height="18.2" transform="rotate(41.4 373.4 348.8)"/><rect x="289.2" y="358.9" width="17.7" height="17.7" transform="rotate(88.7 289.2 358.9)"/><rect x="286.8" y="368.9" width="17.3" height="17.3" transform="rotate(36.7 286.8 368.9)"/><rect x="366.1" y="379" width="16.8" height="16.8" transform="rotate(31.1 366.1 379)"/><rect x="267.9" y="389" width="16.4" height="16.4" transform="rotate(61 267.9 389)"/><rect x="267.9" y="399" width="15.9" height="15.9" transform="rotate(69.2 267.9 399)"/><rect x="295.7" y="409.1" width="15.5" height="15.5" transform="rotate(29.6 295.7 409.1)"/><rect x="344.2" y="419.1" width="15" height="15" transform="rotate(64.5 344.2 419.1)"/><rect x="402.7" y="429.2" width="14.5" height="14.5" transform="rotate(33.9 402.7 429.2)"/><rect x="376.7" y="439.2" width="14.1" height="14.1" transform="rotate(20.5 376.7 439.2)"/><rect x="223.1" y="449.2" width="13.6" height="13.6" transform="rotate(17.3 223.1 449.2)"/><rect x="306.3" y="459.3" width="13.2" height="13.2" transform="rotate(46 306.3 459.3)"/><rect x="362" y="469.3" width="12.7" height="12.7" transform="rotate(18.1 362 469.3)"/><rect x="224.5" y="479.4" width="12.3" height="12.3" transform="rotate(88.7 224.5 479.4)"/><rect x="444.6" y="489.4" width="11.8" height="11.8" transform="rotate(32.5 444.6 489.4)"/><rect x="383.5" y="499.4" width="11.4" height="11.4" transform="rotate(67.3 383.5 499.4)"/><rect x="175.9" y="509.5" width="10.9" height="10.9" transform="rotate(50.4 175.9 509.5)"/><rect x="306.5" y="519.5" width="10.5" height="10.5" transform="rotate(81.7 306.5 519.5)"/><rect x="247.9" y="529.6" width="10" height="10" transform="rotate(24.8 247.9 529.6)"/><rect x="433.6" y="539.6" width="9.5" height="9.5" transform="rotate(22.5 433.6 539.6)"/><rect x="287.2" y="549.6" width="9.1" height="9.1" transform="rotate(80.5 287.2 549.6)"/><rect x="296.4" y="559.7" width="8.6" height="8.6" transform="rotate(38.1 296.4 559.7)"/><rect x="451.2" y="569.7" width="8.2" height="8.2" transform="rotate(1.4 451.2 569.7)"/><rect x="357.7" y="579.8" width="7.7" height="7.7" transform="rotate(51.4 357.7 579.8)"/><rect x="366.2" y="589.8" width="7.3" height="7.3" transform="rotate(33.7 366.2 589.8)"/><rect x="490" y="599.8" width="6.8" height="6.8" transform="rotate(85 490 599.8)"/><rect x="205.3" y="609.9" width="6.4" height="6.4" transform="rotate(13.9 205.3 609.9)"/><rect x="135.2" y="619.9" width="5.9" height="5.9" transform="rotate(88.7 135.2 619.9)"/><rect x="336.9" y="630" width="5.5" height="5.5" transform="rotate(58 336.9 630)"/><rect x="168.9" y="640" width="5" height="5" transform="rotate(0.8 168.9 640)"/></g>
<rect width="640" height="640" fill="url(#vskillerosiondefaultoffload)"/>
<rect width="640" height="640" filter="url(#nskillerosiondefaultoffload)" opacity="0.3" style="mix-blend-mode:multiply"/>
<rect width="640" height="640" filter="url(#nskillerosiondefaultoffload)" opacity="0.14" style="mix-blend-mode:screen"/>
</svg>
