<svg xmlns="http://www.w3.org/2000/svg" viewBox="0 0 640 640" width="640" height="640" role="img" aria-hidden="true" preserveAspectRatio="xMidYMid slice">
<title>validation-debt/specialization-wedge</title>
<defs>
<linearGradient id="fvalidationdebtspecializationwedge" x1="0" y1="0" x2="0.6" y2="1">
<stop offset="0" stop-color="#C2C64F"/><stop offset="0.42" stop-color="#9A9A43"/>
<stop offset="0.8" stop-color="#4E9A62"/><stop offset="1" stop-color="#EFFAB4"/>
</linearGradient>
<radialGradient id="gvalidationdebtspecializationwedge" cx="46%" cy="30%" r="60%">
<stop offset="0" stop-color="#EFFAB4" stop-opacity="0.3"/>
<stop offset="1" stop-color="#EFFAB4" stop-opacity="0"/>
</radialGradient>
<linearGradient id="bvalidationdebtspecializationwedge" x1="0" y1="0" x2="0" y2="1">
<stop offset="0" stop-color="#EFFAB4" stop-opacity="0.42"/>
<stop offset="0.55" stop-color="#EFFAB4" stop-opacity="0.15"/>
<stop offset="1" stop-color="#EFFAB4" stop-opacity="0"/>
</linearGradient>
<filter id="svalidationdebtspecializationwedge" x="-25%" y="-25%" width="150%" height="150%">
<feGaussianBlur stdDeviation="22"/>
</filter>
<radialGradient id="vvalidationdebtspecializationwedge" cx="50%" cy="40%" r="72%">
<stop offset="0.5" stop-color="#20260A" stop-opacity="0"/>
<stop offset="1" stop-color="#20260A" stop-opacity="0.58"/>
</radialGradient>
<filter id="nvalidationdebtspecializationwedge" x="0" y="0" width="100%" height="100%">
<feTurbulence type="fractalNoise" baseFrequency="0.8" numOctaves="3" seed="11" result="t"/>
<feColorMatrix in="t" type="matrix" values="0 0 0 0 0 0 0 0 0 0 0 0 0 0 0 0.4 0 0 0 0"/>
</filter>
<style>.lit{fill:#EFFAB4;stroke:none;fill-opacity:0.3}</style>
</defs>
<rect width="640" height="640" fill="url(#fvalidationdebtspecializationwedge)"/>
<rect width="640" height="640" fill="url(#gvalidationdebtspecializationwedge)"/>
<polygon points="179.2,192 460.8,192 588.8,640 51.19999999999999,640" fill="url(#bvalidationdebtspecializationwedge)" filter="url(#svalidationdebtspecializationwedge)"/>
<g fill="#20260A" stroke="#20260A" fill-opacity="0.96" stroke-opacity="0.96"><ellipse cx="320" cy="177.7" rx="464.1" ry="167.1" fill="none" stroke-width="48"/><rect x="343.4" y="344.8" width="20" height="20" transform="rotate(36.2 343.4 344.8)"/><rect x="318.3" y="353.8" width="19.5" height="19.5" transform="rotate(86.3 318.3 353.8)"/><rect x="295.7" y="362.7" width="19.1" height="19.1" transform="rotate(11.3 295.7 362.7)"/><rect x="346.4" y="371.7" width="18.6" height="18.6" transform="rotate(83.9 346.4 371.7)"/><rect x="378.4" y="380.6" width="18.2" height="18.2" transform="rotate(74.6 378.4 380.6)"/><rect x="359" y="389.6" width="17.7" height="17.7" transform="rotate(9.3 359 389.6)"/><rect x="279.7" y="398.5" width="17.3" height="17.3" transform="rotate(37.2 279.7 398.5)"/><rect x="334.2" y="407.4" width="16.8" height="16.8" transform="rotate(50.9 334.2 407.4)"/><rect x="330.7" y="416.4" width="16.4" height="16.4" transform="rotate(5.6 330.7 416.4)"/><rect x="269.8" y="425.3" width="15.9" height="15.9" transform="rotate(69.5 269.8 425.3)"/><rect x="401.2" y="434.3" width="15.5" height="15.5" transform="rotate(73.3 401.2 434.3)"/><rect x="243.4" y="443.2" width="15" height="15" transform="rotate(24.6 243.4 443.2)"/><rect x="300.9" y="452.2" width="14.5" height="14.5" transform="rotate(72.2 300.9 452.2)"/><rect x="325.1" y="461.1" width="14.1" height="14.1" transform="rotate(65.3 325.1 461.1)"/><rect x="241.1" y="470.1" width="13.6" height="13.6" transform="rotate(80.6 241.1 470.1)"/><rect x="310.4" y="479" width="13.2" height="13.2" transform="rotate(55.3 310.4 479)"/><rect x="224.8" y="487.9" width="12.7" height="12.7" transform="rotate(64.2 224.8 487.9)"/><rect x="342.2" y="496.9" width="12.3" height="12.3" transform="rotate(76.7 342.2 496.9)"/><rect x="342.1" y="505.8" width="11.8" height="11.8" transform="rotate(45.1 342.1 505.8)"/><rect x="215.9" y="514.8" width="11.4" height="11.4" transform="rotate(13 215.9 514.8)"/><rect x="418.3" y="523.7" width="10.9" height="10.9" transform="rotate(49.2 418.3 523.7)"/><rect x="170.1" y="532.7" width="10.5" height="10.5" transform="rotate(53.7 170.1 532.7)"/><rect x="292.8" y="541.6" width="10" height="10" transform="rotate(20.3 292.8 541.6)"/><rect x="451.5" y="550.6" width="9.5" height="9.5" transform="rotate(55.5 451.5 550.6)"/><rect x="194.5" y="559.5" width="9.1" height="9.1" transform="rotate(63.1 194.5 559.5)"/><rect x="499.5" y="568.4" width="8.6" height="8.6" transform="rotate(13.6 499.5 568.4)"/><rect x="268.2" y="577.4" width="8.2" height="8.2" transform="rotate(64.4 268.2 577.4)"/><rect x="361.5" y="586.3" width="7.7" height="7.7" transform="rotate(49.3 361.5 586.3)"/><rect x="461.7" y="595.3" width="7.3" height="7.3" transform="rotate(35.5 461.7 595.3)"/><rect x="351.5" y="604.2" width="6.8" height="6.8" transform="rotate(2.8 351.5 604.2)"/><rect x="301.6" y="613.2" width="6.4" height="6.4" transform="rotate(2.3 301.6 613.2)"/><rect x="421.2" y="622.1" width="5.9" height="5.9" transform="rotate(66.1 421.2 622.1)"/><rect x="483.9" y="631.1" width="5.5" height="5.5" transform="rotate(5 483.9 631.1)"/><rect x="237" y="640" width="5" height="5" transform="rotate(68.7 237 640)"/></g>
<rect width="640" height="640" fill="url(#vvalidationdebtspecializationwedge)"/>
<rect width="640" height="640" filter="url(#nvalidationdebtspecializationwedge)" opacity="0.3" style="mix-blend-mode:multiply"/>
<rect width="640" height="640" filter="url(#nvalidationdebtspecializationwedge)" opacity="0.14" style="mix-blend-mode:screen"/>
</svg>
